<?xml version="1.0" encoding="utf-8"?>
<!-- Generator: Adobe Illustrator 26.5.0, SVG Export Plug-In . SVG Version: 6.00 Build 0)  -->
<svg version="1.0" id="Capa_1" xmlns="http://www.w3.org/2000/svg" xmlns:xlink="http://www.w3.org/1999/xlink" x="0px" y="0px"
	 viewBox="0 0 150 110" style="enable-background:new 0 0 150 110;" xml:space="preserve">
<style type="text/css">
	.st0{fill-rule:evenodd;clip-rule:evenodd;fill:#FFFFFF;}
</style>
<g>
	<path class="st0" d="M31.5,1.1h87.3c-2.2,7.9-7.8,22.7-12.6,38.3c7.1-0.1,14.1-0.5,20.9-1.7c9.9-1.8,16.1-11.1,15-17.1
		c-0.1-0.6,0.2-0.8,0.7-0.4c1.4,1,3.5,5.7,3,10.7c-1.8,17.9-13.5,26.3-30.6,27.2c-4.6,0.2-9.4,0.4-14.4,0.6
		c-4.5,19.8-4.9,36.6,8.2,37c10,0.3,12.8-10.2,15.9-8.1c4.8,3.2-9.3,21.6-23.1,21.2c-14-0.4-21.3-9-21.4-22.5
		c0-8.9,1.9-18.1,4.5-27.2c-6.6,0.1-13.3,0.1-19.9,0c2.6,9.2,4.5,18.3,4.5,27.2c0,13.6-7.3,22.1-21.4,22.5
		c-13.8,0.4-27.8-18-23.1-21.2c3.1-2.1,5.9,8.4,15.9,8.1c13.1-0.4,12.8-17.2,8.2-37c-5-0.2-9.8-0.4-14.5-0.6
		C17.9,57.2,6.1,48.8,4.3,30.9c-0.5-5,1.5-9.8,3-10.7C7.8,19.8,8.1,20,8,20.6c-1,6,5.1,15.4,15,17.1c6.9,1.2,13.9,1.6,21.1,1.7
		C39.3,23.8,33.7,9,31.5,1.1L31.5,1.1z M91.5,39.3c2-5.8,3.9-11.5,5.4-17h-0.8L96,22.4H54.4l0.2-0.1h-1.1c1.5,5.5,3.5,11.2,5.4,17
		c5.4-0.1,10.8-0.1,16.2,0C80.5,39.2,86,39.2,91.5,39.3L91.5,39.3z"/>
</g>
</svg>
