<?xml version="1.0" encoding="utf-8"?>
<!-- Generator: Adobe Illustrator 26.5.0, SVG Export Plug-In . SVG Version: 6.00 Build 0)  -->
<svg version="1.0" id="Capa_1" xmlns="http://www.w3.org/2000/svg" xmlns:xlink="http://www.w3.org/1999/xlink" x="0px" y="0px"
	 viewBox="0 0 32 32" style="enable-background:new 0 0 32 32;" xml:space="preserve">
<style type="text/css">
	.st0{opacity:0.5;fill-rule:evenodd;clip-rule:evenodd;fill:#282B2E;}
	.st1{fill-rule:evenodd;clip-rule:evenodd;fill:#FFFFFF;}
</style>
<circle class="st0" cx="16" cy="16" r="15.6"/>
<g>
	<path class="st1" d="M16,31.2C7.6,31.2,0.8,24.4,0.8,16C0.8,7.6,7.6,0.8,16,0.8c8.4,0,15.2,6.8,15.2,15.2
		C31.2,24.4,24.4,31.2,16,31.2z M16,27.9C9.4,27.9,4.1,22.6,4.1,16S9.4,4.1,16,4.1c6.6,0,11.9,5.3,11.9,11.9
		C27.9,22.6,22.6,27.9,16,27.9z"/>
	<path class="st1" d="M14.6,21.6h-2.9V10.4h2.9V21.6z M20.2,21.6h-2.9V10.4h2.9V21.6z"/>
</g>
</svg>
