<?xml version="1.0" encoding="utf-8"?>
<!-- Generator: Adobe Illustrator 26.5.0, SVG Export Plug-In . SVG Version: 6.00 Build 0)  -->
<svg version="1.0" id="Capa_1" xmlns="http://www.w3.org/2000/svg" xmlns:xlink="http://www.w3.org/1999/xlink" x="0px" y="0px"
	 viewBox="0 0 32 32" style="enable-background:new 0 0 32 32;" xml:space="preserve">
<style type="text/css">
	.st0{opacity:0.5;fill-rule:evenodd;clip-rule:evenodd;fill:#282B2E;}
	.st1{fill-rule:evenodd;clip-rule:evenodd;fill:#FFFFFF;}
</style>
<circle class="st0" cx="16" cy="16" r="15.6"/>
<g>
	<path class="st1" d="M16,30.3c-8.3,0-15-7.1-14.3-15.5c0.6-6.7,5.8-12.2,12.5-13c4.1-0.5,8.1,0.8,11.1,3.4l4.5-4.5
		c0.1-0.1,0.4,0,0.4,0.2v11.9c0,0.1-0.1,0.2-0.2,0.2H18.1c-0.2,0-0.3-0.2-0.2-0.4L22,8.5c-1.7-1.4-3.9-2.1-6.1-2.1l-0.2,0
		c-5.4,0-9.7,4.5-9.5,9.9c0.2,5,4.4,9.2,9.4,9.4c5.5,0.1,10-4.3,10-9.7v-1h4.7c0,0,0,0.2,0,0.5C30.3,23.4,23.9,30.3,16,30.3z"/>
</g>
</svg>
