<?xml version="1.0" encoding="utf-8"?>
<!-- Generator: Adobe Illustrator 26.5.0, SVG Export Plug-In . SVG Version: 6.00 Build 0)  -->
<svg version="1.0" id="Capa_1" xmlns="http://www.w3.org/2000/svg" xmlns:xlink="http://www.w3.org/1999/xlink" x="0px" y="0px"
	 viewBox="0 0 32 32" style="enable-background:new 0 0 32 32;" xml:space="preserve">
<style type="text/css">
	.st0{opacity:0.5;fill-rule:evenodd;clip-rule:evenodd;fill:#282B2E;}
	.st1{fill-rule:evenodd;clip-rule:evenodd;fill:#FFFFFF;}
</style>
<circle class="st0" cx="16" cy="16" r="15.6"/>
<g>
	<path class="st1" d="M14,30.2c-7.1-1-12.3-7.3-12.3-14.5l0-0.7h4.7l0,0.7c0,4.5,3,8.7,7.4,9.7c6.3,1.5,11.9-3.3,11.9-9.4
		c0-5.4-4.4-9.7-9.7-9.7c-2.2,0-4.4,0.8-6.1,2.2l4.1,4.2c0.1,0.1,0,0.4-0.2,0.4H1.9c-0.1,0-0.2-0.1-0.2-0.2V0.8
		c0-0.2,0.2-0.3,0.4-0.2l4.5,4.5c3-2.7,7-3.9,11.2-3.4c6.7,0.8,11.9,6.3,12.5,13C31,23.9,23.2,31.4,14,30.2z"/>
</g>
</svg>
